<svg xmlns="http://www.w3.org/2000/svg" viewBox="0 0 128 128" role="img" aria-label="Rust Book">
  <rect width="128" height="128" rx="18" fill="#1f1f1f"/>
  <path d="M32 24h47c9.4 0 17 7.6 17 17v63H45c-7.2 0-13-5.8-13-13V24Z" fill="#d16b2a"/>
  <path d="M45 34h35c3.3 0 6 2.7 6 6v53H48c-3.3 0-6-2.7-6-6V37c0-1.7 1.3-3 3-3Z" fill="#f7f1e8"/>
  <path d="M53 49h23M53 62h23M53 75h18" stroke="#30251e" stroke-width="6" stroke-linecap="round"/>
  <path d="M32 91c0 7.2 5.8 13 13 13h51" fill="none" stroke="#f08b3e" stroke-width="8" stroke-linecap="round"/>
</svg>
